<svg width="100" height="100" viewBox="0 0 100 100" fill="none" xmlns="http://www.w3.org/2000/svg">
<rect width="100" height="100" rx="50" fill="#F1F5F9"/>
<path d="M23.5281 60.964C22.0115 60.964 20.6266 60.5943 19.3732 59.8548C18.1199 59.1028 17.1172 58.1001 16.3652 56.8468C15.6258 55.5934 15.256 54.2085 15.256 52.6919C15.256 51.1629 15.6258 49.7779 16.3652 48.5371C17.1172 47.2838 18.1199 46.2873 19.3732 45.5479C20.6266 44.7959 22.0115 44.4199 23.5281 44.4199C25.0572 44.4199 26.4421 44.7959 27.6829 45.5479C28.9362 46.2873 29.9327 47.2838 30.6721 48.5371C31.4241 49.7779 31.8001 51.1629 31.8001 52.6919C31.8001 54.2085 31.4241 55.5934 30.6721 56.8468C29.9327 58.1001 28.9362 59.1028 27.6829 59.8548C26.4421 60.5943 25.0572 60.964 23.5281 60.964ZM64.4303 53.7917C64.395 56.1564 64.042 58.2564 63.3715 60.0917C62.7362 61.927 61.8009 63.4799 60.5656 64.7505C59.3303 65.9858 57.8479 66.9387 56.1185 67.6093C54.4244 68.2446 52.5009 68.5622 50.3479 68.5622C48.3362 68.5622 46.4832 68.2446 44.7891 67.6093C43.095 66.9387 41.6303 65.9858 40.395 64.7505C39.1597 63.4799 38.1891 61.927 37.4832 60.0917C36.8126 58.2564 36.4597 56.1564 36.4244 53.7917H44.4715C44.5068 55.627 44.7185 57.1799 45.1068 58.4505C45.5303 59.6858 46.1832 60.6211 47.0656 61.2564C47.9479 61.8917 49.0773 62.2093 50.4538 62.2093C51.8303 62.2093 52.942 61.8917 53.7891 61.2564C54.6715 60.6211 55.3244 59.6858 55.7479 58.4505C56.1715 57.1799 56.3832 55.627 56.3832 53.7917H64.4303ZM77.3482 60.964C75.8316 60.964 74.4467 60.5943 73.1933 59.8548C71.94 59.1028 70.9373 58.1001 70.1853 56.8468C69.4458 55.5934 69.0761 54.2085 69.0761 52.6919C69.0761 51.1629 69.4458 49.7779 70.1853 48.5371C70.9373 47.2838 71.94 46.2873 73.1933 45.5479C74.4467 44.7959 75.8316 44.4199 77.3482 44.4199C78.8772 44.4199 80.2622 44.7959 81.503 45.5479C82.7563 46.2873 83.7527 47.2838 84.4922 48.5371C85.2442 49.7779 85.6202 51.1629 85.6202 52.6919C85.6202 54.2085 85.2442 55.5934 84.4922 56.8468C83.7527 58.1001 82.7563 59.1028 81.503 59.8548C80.2622 60.5943 78.8772 60.964 77.3482 60.964Z" fill="#303B4A"/>
</svg>
